<?xml version="1.0" encoding="UTF-8"?>
<svg version="1.1" xmlns="http://www.w3.org/2000/svg" width="512" height="512">
<path d="M0 0 C1.40079604 -0.00599578 2.8015888 -0.01280371 4.20237732 -0.02035522 C7.98847694 -0.03793438 11.77448596 -0.0427077 15.56062245 -0.0439868 C17.93866791 -0.0454157 20.31669091 -0.0496996 22.69473076 -0.05498123 C31.02827264 -0.07346807 39.3617508 -0.08165518 47.6953125 -0.08007812 C55.39942988 -0.07888315 63.10326419 -0.09986145 70.80731016 -0.13156545 C77.46684808 -0.15796992 84.12629512 -0.16843516 90.7858848 -0.16716731 C94.74260731 -0.16666388 98.69907911 -0.17199282 102.65574837 -0.19352341 C141.45210201 -0.38978777 178.72066433 6.05059699 211.95678711 27.29052734 C212.58359375 27.68965332 213.21040039 28.0887793 213.85620117 28.5 C224.31746301 35.24496424 233.81814199 42.85017522 242.95678711 51.29052734 C243.46580566 51.75958496 243.97482422 52.22864258 244.49926758 52.71191406 C275.24752164 81.39444733 295.14871689 122.69512913 299.95678711 164.29052734 C300.06764648 165.18771484 300.17850586 166.08490234 300.29272461 167.00927734 C302.25275193 185.86791863 300.69251479 204.60871129 297.95678711 223.29052734 C298.61380615 223.07904053 299.2708252 222.86755371 299.94775391 222.6496582 C307.00126655 220.53217494 313.42203236 219.77824915 320.76928711 219.85302734 C322.34468262 219.86438721 322.34468262 219.86438721 323.9519043 219.87597656 C332.22762065 220.05088757 339.24896701 221.1096805 346.95678711 224.29052734 C347.96354492 224.69142578 348.97030273 225.09232422 350.00756836 225.50537109 C366.33965966 232.81350533 378.16438093 246.14535635 384.96069336 262.58349609 C385.2894043 263.47681641 385.61811523 264.37013672 385.95678711 265.29052734 C386.27518555 266.15291016 386.59358398 267.01529297 386.92163086 267.90380859 C392.16308258 284.98079646 389.73204439 304.1269682 381.89428711 319.91552734 C372.50523862 335.85085102 358.11441323 348.60806766 345.21069336 361.68896484 C344.68983493 362.21706646 344.16897649 362.74516809 343.63233447 363.28927279 C338.68793929 368.30082286 333.73891414 373.30776733 328.78009129 378.30504417 C322.52338881 384.61099039 316.28929194 390.93754366 310.08448082 397.29456651 C305.67244149 401.81097794 301.2345137 406.30097254 296.77815384 410.77365172 C294.1403854 413.42242785 291.51388062 416.08014556 288.91540718 418.76752853 C274.99692875 433.13983389 261.23618683 443.02531185 243.17872429 451.6946907 C237.91862697 454.30003512 232.85021403 457.23006333 227.76928711 460.16552734 C221.34851566 463.83303741 214.90276258 467.39981047 208.33178711 470.79052734 C200.24883949 474.99273612 192.5661476 479.7698027 184.85131836 484.60693359 C178.65549606 488.49121701 172.42003141 492.30858079 166.17202759 496.1081543 C164.96494907 496.84271846 163.75852488 497.57835918 162.55282593 498.31518555 C136.27044776 514.37661326 136.27044776 514.37661326 119.95678711 512.29052734 C111.45591037 509.7595845 104.72031746 504.77934669 99.95678711 497.29052734 C95.43926326 487.66512141 94.68399958 479.30800218 97.80371094 469.24316406 C100.16788475 463.18931733 103.66878081 457.71246672 107.01928711 452.16552734 C107.79642144 450.86121524 108.57278307 449.55644244 109.34838867 448.2512207 C113.59699914 441.12128595 117.92649723 434.04346486 122.3605957 427.02734375 C131.97668207 411.78942109 140.780631 396.14210402 149.19580078 380.21728516 C150.10616089 378.49590332 150.10616089 378.49590332 151.03491211 376.73974609 C151.57535156 375.71196045 152.11579102 374.6841748 152.67260742 373.62524414 C153.95678711 371.29052734 153.95678711 371.29052734 154.95678711 370.29052734 C154.37936768 370.37616943 153.80194824 370.46181152 153.20703125 370.55004883 C150.47882722 370.95021424 147.74911306 371.33908594 145.01928711 371.72802734 C144.11243164 371.86273438 143.20557617 371.99744141 142.27124023 372.13623047 C125.36404603 374.51834374 108.43138297 374.42192975 91.39428711 374.35302734 C89.20743919 374.34799787 87.02059013 374.34343755 84.83374023 374.33935547 C79.54139732 374.32847478 74.24909772 374.31185346 68.95678711 374.29052734 C68.96566956 375.23440811 68.974552 376.17828888 68.98370361 377.15077209 C69.06529402 386.10816263 69.12499216 395.06547638 69.1640358 404.02315617 C69.18478434 408.62684349 69.21286474 413.23022744 69.25854492 417.83374023 C69.30246272 422.28824725 69.32601956 426.74246511 69.33629608 431.19717216 C69.34360603 432.88459249 69.35787675 434.57199957 69.37970734 436.25929451 C69.64483219 457.62859474 64.15072775 476.48491437 48.95678711 492.29052734 C33.66942424 507.21332671 15.70410714 512.8164766 -5.25805664 512.63818359 C-24.57323763 512.18002075 -41.60618279 504.20146766 -55.04321289 490.29052734 C-68.77278379 474.50265175 -73.70534761 456.31388774 -73.57446289 435.87255859 C-73.57716677 434.35658012 -73.58105657 432.84060336 -73.58605957 431.32463074 C-73.5918929 428.18247597 -73.58358133 425.04078207 -73.56469727 421.89868164 C-73.54169213 417.87586339 -73.55520325 413.85410028 -73.57898712 409.83131886 C-73.59342932 406.71630354 -73.58885027 403.60153976 -73.57847595 400.48651695 C-73.57581544 399.00217244 -73.57905461 397.51780483 -73.58839417 396.03348732 C-73.59855867 393.96856299 -73.58307436 391.90537127 -73.56079102 389.84057617 C-73.55760864 388.6689241 -73.55442627 387.49727203 -73.55114746 386.29011536 C-72.93800848 382.66924674 -71.97090826 381.45132986 -69.04321289 379.29052734 C-68.05321289 379.29052734 -67.06321289 379.29052734 -66.04321289 379.29052734 C-66.04321289 374.34052734 -66.04321289 369.39052734 -66.04321289 364.29052734 C-67.69321289 363.96052734 -69.34321289 363.63052734 -71.04321289 363.29052734 C-73.22860925 360.01243281 -73.29454967 359.07629353 -73.3004818 355.27807236 C-73.30693069 354.23633102 -73.31337958 353.19458969 -73.32002389 352.12128043 C-73.31692669 350.97296626 -73.31382949 349.82465209 -73.31063843 348.64154053 C-73.31516954 347.42449503 -73.31970065 346.20744954 -73.32436907 344.95352387 C-73.33486446 341.5687188 -73.3363346 338.18412566 -73.33398032 334.79931927 C-73.33357297 331.15077367 -73.34460405 327.50226004 -73.35409546 323.85372925 C-73.37072907 316.70024653 -73.37620622 309.54679677 -73.37732022 302.39329633 C-73.37827032 296.57398325 -73.3823788 290.75468104 -73.38872147 284.9353714 C-73.40634646 268.42781674 -73.41555929 251.92028812 -73.41406052 235.41272399 C-73.41398061 234.52226238 -73.41390069 233.63180077 -73.41381836 232.71435547 C-73.4137366 231.8228022 -73.41365484 230.93124893 -73.4135706 230.01267889 C-73.41275911 215.58967102 -73.43185891 201.16676795 -73.46009509 186.74379036 C-73.48887477 171.92576289 -73.50263234 157.10778641 -73.50090754 142.28973031 C-73.50024501 133.97429502 -73.50567607 125.65896932 -73.52726364 117.34355927 C-73.54554325 110.25684795 -73.54976811 103.17029582 -73.53624479 96.08357105 C-73.52974684 92.47255535 -73.52948119 88.86184438 -73.54695129 85.25085831 C-73.66181332 59.88759108 -70.79372842 38.69498053 -52.50805664 19.73632812 C-37.82188459 5.24107631 -20.10892645 -0.01407268 0 0 Z M68.95678711 142.29052734 C68.95678711 171.66052734 68.95678711 201.03052734 68.95678711 231.29052734 C76.93866211 231.37302734 84.92053711 231.45552734 93.14428711 231.54052734 C95.63628662 231.57694336 98.12828613 231.61335938 100.69580078 231.65087891 C117.85288941 231.79782002 132.54049116 230.25816005 145.70678711 218.04052734 C155.23475709 207.81593691 158.51094624 196.66418632 158.26147461 182.91552734 C157.91616218 178.80719488 156.98750905 175.30723506 155.63256836 171.43505859 C154.02616589 166.33728429 154.66614923 162.01496797 156.95678711 157.29052734 C154.92306786 154.2130118 152.87909682 151.56635487 149.95678711 149.29052734 C147.40884838 149.17916639 145.26659425 149.67854604 142.76928711 150.17724609 C138.00378205 150.36919005 134.35619091 148.02119359 130.23022461 145.83349609 C122.59379686 142.23398659 115.54108478 142.01342094 107.23803711 142.09521484 C105.77575684 142.09823608 105.77575684 142.09823608 104.28393555 142.10131836 C100.67483756 142.1117087 97.06580714 142.13963077 93.45678711 142.16552734 C81.32928711 142.22740234 81.32928711 142.22740234 68.95678711 142.29052734 Z " fill="#966ACE" transform="translate(98.043212890625,-0.29052734375)"/>
<path d="M0 0 C1.40079604 -0.00599578 2.8015888 -0.01280371 4.20237732 -0.02035522 C7.98847694 -0.03793438 11.77448596 -0.0427077 15.56062245 -0.0439868 C17.93866791 -0.0454157 20.31669091 -0.0496996 22.69473076 -0.05498123 C31.02827264 -0.07346807 39.3617508 -0.08165518 47.6953125 -0.08007812 C55.39942988 -0.07888315 63.10326419 -0.09986145 70.80731016 -0.13156545 C77.46684808 -0.15796992 84.12629512 -0.16843516 90.7858848 -0.16716731 C94.74260731 -0.16666388 98.69907911 -0.17199282 102.65574837 -0.19352341 C141.45210201 -0.38978777 178.72066433 6.05059699 211.95678711 27.29052734 C212.58359375 27.68965332 213.21040039 28.0887793 213.85620117 28.5 C224.31746301 35.24496424 233.81814199 42.85017522 242.95678711 51.29052734 C243.46580566 51.75958496 243.97482422 52.22864258 244.49926758 52.71191406 C275.24752164 81.39444733 295.14871689 122.69512913 299.95678711 164.29052734 C300.06764648 165.18771484 300.17850586 166.08490234 300.29272461 167.00927734 C302.25275193 185.86791863 300.69251479 204.60871129 297.95678711 223.29052734 C298.61380615 223.07904053 299.2708252 222.86755371 299.94775391 222.6496582 C307.00126655 220.53217494 313.42203236 219.77824915 320.76928711 219.85302734 C322.34468262 219.86438721 322.34468262 219.86438721 323.9519043 219.87597656 C332.22762065 220.05088757 339.24896701 221.1096805 346.95678711 224.29052734 C347.96354492 224.69142578 348.97030273 225.09232422 350.00756836 225.50537109 C366.33965966 232.81350533 378.16438093 246.14535635 384.96069336 262.58349609 C385.2894043 263.47681641 385.61811523 264.37013672 385.95678711 265.29052734 C386.27518555 266.15291016 386.59358398 267.01529297 386.92163086 267.90380859 C392.16308258 284.98079646 389.73204439 304.1269682 381.89428711 319.91552734 C372.50523862 335.85085102 358.11441323 348.60806766 345.21069336 361.68896484 C344.68983493 362.21706646 344.16897649 362.74516809 343.63233447 363.28927279 C338.68793929 368.30082286 333.73891414 373.30776733 328.78009129 378.30504417 C322.52338881 384.61099039 316.28929194 390.93754366 310.08448082 397.29456651 C305.67244149 401.81097794 301.2345137 406.30097254 296.77815384 410.77365172 C294.1403854 413.42242785 291.51388062 416.08014556 288.91540718 418.76752853 C274.99692875 433.13983389 261.23618683 443.02531185 243.17872429 451.6946907 C237.91862697 454.30003512 232.85021403 457.23006333 227.76928711 460.16552734 C221.34851566 463.83303741 214.90276258 467.39981047 208.33178711 470.79052734 C200.24883949 474.99273612 192.5661476 479.7698027 184.85131836 484.60693359 C178.65549606 488.49121701 172.42003141 492.30858079 166.17202759 496.1081543 C164.96494907 496.84271846 163.75852488 497.57835918 162.55282593 498.31518555 C136.27044776 514.37661326 136.27044776 514.37661326 119.95678711 512.29052734 C111.45591037 509.7595845 104.72031746 504.77934669 99.95678711 497.29052734 C95.43926326 487.66512141 94.68399958 479.30800218 97.80371094 469.24316406 C100.16788475 463.18931733 103.66878081 457.71246672 107.01928711 452.16552734 C107.79642144 450.86121524 108.57278307 449.55644244 109.34838867 448.2512207 C113.59699914 441.12128595 117.92649723 434.04346486 122.3605957 427.02734375 C131.97668207 411.78942109 140.780631 396.14210402 149.19580078 380.21728516 C150.10616089 378.49590332 150.10616089 378.49590332 151.03491211 376.73974609 C151.57535156 375.71196045 152.11579102 374.6841748 152.67260742 373.62524414 C153.95678711 371.29052734 153.95678711 371.29052734 154.95678711 370.29052734 C154.37936768 370.37616943 153.80194824 370.46181152 153.20703125 370.55004883 C150.47882722 370.95021424 147.74911306 371.33908594 145.01928711 371.72802734 C144.11243164 371.86273438 143.20557617 371.99744141 142.27124023 372.13623047 C125.36404603 374.51834374 108.43138297 374.42192975 91.39428711 374.35302734 C89.20743919 374.34799787 87.02059013 374.34343755 84.83374023 374.33935547 C79.54139732 374.32847478 74.24909772 374.31185346 68.95678711 374.29052734 C68.96566956 375.23440811 68.974552 376.17828888 68.98370361 377.15077209 C69.06529402 386.10816263 69.12499216 395.06547638 69.1640358 404.02315617 C69.18478434 408.62684349 69.21286474 413.23022744 69.25854492 417.83374023 C69.30246272 422.28824725 69.32601956 426.74246511 69.33629608 431.19717216 C69.34360603 432.88459249 69.35787675 434.57199957 69.37970734 436.25929451 C69.64483219 457.62859474 64.15072775 476.48491437 48.95678711 492.29052734 C33.66942424 507.21332671 15.70410714 512.8164766 -5.25805664 512.63818359 C-24.57323763 512.18002075 -41.60618279 504.20146766 -55.04321289 490.29052734 C-68.77278379 474.50265175 -73.70534761 456.31388774 -73.57446289 435.87255859 C-73.57716677 434.35658012 -73.58105657 432.84060336 -73.58605957 431.32463074 C-73.5918929 428.18247597 -73.58358133 425.04078207 -73.56469727 421.89868164 C-73.54169213 417.87586339 -73.55520325 413.85410028 -73.57898712 409.83131886 C-73.59342932 406.71630354 -73.58885027 403.60153976 -73.57847595 400.48651695 C-73.57581544 399.00217244 -73.57905461 397.51780483 -73.58839417 396.03348732 C-73.59855867 393.96856299 -73.58307436 391.90537127 -73.56079102 389.84057617 C-73.55760864 388.6689241 -73.55442627 387.49727203 -73.55114746 386.29011536 C-72.93729187 382.66501482 -71.94801041 381.48051935 -69.04321289 379.29052734 C-65.29218539 378.65205458 -63.63258139 378.92617273 -60.3870697 380.93258667 C-58.04321289 383.29052734 -58.04321289 383.29052734 -57.4443512 386.15603638 C-57.45578659 387.26534515 -57.46722198 388.37465393 -57.47900391 389.51757812 C-57.47872696 390.78054718 -57.47845001 392.04351624 -57.47816467 393.34475708 C-57.48958055 394.01843449 -57.50099644 394.69211189 -57.51275826 395.38620377 C-57.5476387 397.5175875 -57.55018453 399.64689542 -57.54441833 401.77853394 C-57.53613763 407.08354141 -57.57698485 412.38788406 -57.62731934 417.69262695 C-58.39346557 449.58003754 -58.39346557 449.58003754 -44.04321289 477.29052734 C-43.4721582 477.98146484 -42.90110352 478.67240234 -42.31274414 479.38427734 C-33.40669311 489.25879021 -20.49163506 495.50481645 -7.33227539 496.59912109 C7.01680298 497.24400375 20.1841141 493.71806093 31.95678711 485.29052734 C32.68510742 484.55833984 33.41342773 483.82615234 34.16381836 483.07177734 C35.95678711 481.29052734 35.95678711 481.29052734 37.95678711 481.29052734 C38.2184668 480.72205078 38.48014648 480.15357422 38.74975586 479.56787109 C40.0503119 477.11407119 41.58876763 475.06266826 43.26928711 472.85302734 C50.20504211 463.09373951 53.10655507 452.62616884 53.09863281 440.80004883 C53.10384445 439.53575043 53.10384445 439.53575043 53.10916138 438.24591064 C53.11649567 436.42131136 53.12185341 434.59670329 53.12545204 432.77209282 C53.13263534 429.88469626 53.14831368 426.99746786 53.16679382 424.11012268 C53.21919183 415.90278348 53.26727935 407.6955402 53.28271484 399.48803711 C53.29278283 394.46355136 53.32206971 389.43949469 53.36403465 384.4151783 C53.3763589 382.50104068 53.38146332 380.58684254 53.37923622 378.67266655 C53.3768893 375.99851303 53.39899984 373.32559774 53.42675781 370.65161133 C53.4168557 369.46469444 53.4168557 369.46469444 53.40675354 368.25379944 C53.46479701 364.85384914 53.70902329 362.66619718 55.59994507 359.79910278 C58.64734154 357.84851492 60.58561159 357.79169677 64.19628906 357.79223633 C65.46314041 357.78220078 66.72999176 357.77216522 68.03523254 357.76182556 C69.04978484 357.76790486 69.04978484 357.76790486 70.08483315 357.77410698 C72.23002354 357.78682838 74.37394284 357.77535355 76.51908875 357.7580719 C81.10254589 357.72590317 85.6857392 357.72633902 90.26928711 357.72802734 C96.24469747 357.72515148 102.21982537 357.70776125 108.19506836 357.66162109 C108.92209709 357.65606453 109.64912582 357.65050797 110.39818573 357.64478302 C127.26090635 357.48332074 143.77752585 355.94527495 159.99584961 351.15771484 C162.64119242 350.38295745 165.24692816 349.78414477 167.95678711 349.29052734 C168.19767846 348.3983079 168.43856981 347.50608845 168.6867609 346.58683205 C170.07930008 342.97254958 171.5284728 341.24493107 174.27720642 338.5496521 C175.18434891 337.6500174 176.09149139 336.75038269 177.02612305 335.82348633 C178.03403099 334.84408523 179.0420928 333.86484246 180.05029297 332.88574219 C181.11066971 331.84123813 182.17009934 330.79577183 183.22865295 329.74942017 C185.5062941 327.50132287 187.789752 325.25936531 190.07771111 323.02177048 C193.70014407 319.47747435 197.30445464 315.91512484 200.90565491 312.34927368 C211.14748115 302.21317589 221.41070344 292.09898607 231.69775391 282.00878906 C237.38198565 276.43301868 243.04971995 270.8409988 248.70030314 265.23112643 C252.27085498 261.68818126 255.86047965 258.16620476 259.46586025 254.65872645 C261.71267105 252.46342091 263.94010054 250.2492096 266.16269493 248.02941513 C267.19040693 247.01050489 268.22578019 245.99924993 269.26954269 244.99678802 C276.28714988 238.24585558 279.51228571 232.92998671 280.95678711 223.29052734 C281.32232251 221.64256611 281.6957382 219.99630413 282.08178711 218.35302734 C286.79428989 193.77480425 285.49371164 166.34271941 278.95678711 142.29052734 C278.74280273 141.48695801 278.52881836 140.68338867 278.30834961 139.85546875 C271.69721654 115.87480781 259.17116499 94.00605926 242.95678711 75.29052734 C241.89717773 74.04722656 241.89717773 74.04722656 240.81616211 72.77880859 C221.20855512 50.31469771 196.68934508 35.54685049 168.95678711 25.29052734 C167.83143555 24.86771484 166.70608398 24.44490234 165.54663086 24.00927734 C157.8675149 21.28076239 149.98864588 19.61112446 141.95678711 18.29052734 C140.97403337 18.12661184 139.99127962 17.96269634 138.97874546 17.79381371 C130.53692572 16.47981768 122.3493511 15.99370524 113.81396484 16 C112.46354815 15.99399461 111.11313483 15.98718457 109.76272583 15.97964478 C106.14087778 15.96219166 102.51912455 15.95729857 98.89723849 15.9560132 C96.62528514 15.95458032 94.35335506 15.95028976 92.08140755 15.94501877 C84.13010277 15.92659409 76.17886448 15.91833948 68.22753906 15.91992188 C60.85426033 15.92112446 53.48127371 15.8999798 46.10806888 15.86843455 C39.74074334 15.84217808 33.37351279 15.83155833 27.00613362 15.83283269 C23.21918303 15.83333914 19.43249333 15.82783214 15.64559746 15.80647659 C12.08386286 15.78693209 8.52263405 15.7870784 4.96088028 15.80150986 C3.0538458 15.804554 1.14681033 15.7880401 -0.76014709 15.77062988 C-11.44944438 15.84745632 -21.43374671 18.17764123 -30.60571289 23.79052734 C-31.55575195 24.35771484 -32.50579102 24.92490234 -33.48461914 25.50927734 C-36.10494706 27.22133148 -36.10494706 27.22133148 -38.25805664 29.50927734 C-40.04321289 31.29052734 -40.04321289 31.29052734 -42.04321289 31.29052734 C-42.30489258 31.85900391 -42.56657227 32.42748047 -42.83618164 33.01318359 C-44.13673768 35.4669835 -45.67519341 37.51838643 -47.35571289 39.72802734 C-53.35020661 48.16286819 -57.16851748 58.13119162 -57.16791153 68.53295231 C-57.17030248 69.57500924 -57.17269343 70.61706617 -57.17515683 71.69070059 C-57.17272434 72.82901955 -57.17029185 73.96733851 -57.16778564 75.14015198 C-57.16919579 76.35441689 -57.17060594 77.5686818 -57.17205882 78.81974262 C-57.17444782 81.48426108 -57.17501264 84.1487076 -57.17250252 86.81321907 C-57.16843862 91.14858788 -57.171214 95.48393717 -57.17485046 99.81930542 C-57.17893914 105.29732115 -57.18118005 110.77533251 -57.18126646 116.25334977 C-57.18146921 127.01331567 -57.19392931 137.77323652 -57.21087646 148.53318787 C-57.21348221 150.22708131 -57.21608102 151.92097476 -57.21867299 153.61486822 C-57.22261131 156.18182681 -57.22655784 158.74878538 -57.23053421 161.31574391 C-57.24547665 170.99052347 -57.25910403 180.6653044 -57.27124023 190.34008789 C-57.2723538 191.22442373 -57.27346736 192.10875957 -57.27461466 193.01989346 C-57.29220433 207.36286867 -57.29505768 221.70581568 -57.29338983 236.04879988 C-57.29211189 250.77082757 -57.3098163 265.49275008 -57.3444078 280.21473736 C-57.36508356 289.29822926 -57.37037592 298.38146953 -57.35607949 307.46497487 C-57.34763602 313.68556772 -57.35731073 319.90596442 -57.38138899 326.12651581 C-57.39472756 329.71800134 -57.39983263 333.30901672 -57.38326836 336.90049934 C-57.36552785 340.78988743 -57.38617028 344.67852246 -57.41070557 348.56788635 C-57.39935019 349.70843603 -57.38799481 350.84898571 -57.37629533 352.0240975 C-57.47013166 359.63122259 -57.47013166 359.63122259 -60.39133835 362.99194241 C-63.63058219 364.57815367 -65.48246683 364.89661178 -69.04321289 364.29052734 C-71.56584808 362.28581189 -72.87828711 361.08099969 -73.54460955 357.88738459 C-73.54525896 356.98570577 -73.54590837 356.08402695 -73.54657745 355.15502453 C-73.55700844 354.11129214 -73.56743943 353.06755976 -73.57818651 351.99219912 C-73.56926363 350.8467978 -73.56034074 349.70139647 -73.55114746 348.52128601 C-73.55738742 347.30338609 -73.56362739 346.08548617 -73.57005644 344.83068019 C-73.58326945 341.44789157 -73.57848938 338.0659888 -73.56611156 334.68325365 C-73.55707527 331.03539158 -73.57102442 327.38760793 -73.58203125 323.73976135 C-73.59984222 316.58970924 -73.59596337 309.43982485 -73.58438069 302.2897661 C-73.57534898 296.47332811 -73.57412126 290.65693714 -73.57847595 284.84049416 C-73.57908888 284.01275859 -73.57970182 283.18502302 -73.58033332 282.33220455 C-73.58161225 280.65055665 -73.58290911 278.96890875 -73.58422369 277.28726087 C-73.59563903 261.5044556 -73.5825049 245.72174313 -73.56102222 229.93895308 C-73.54318673 216.41799559 -73.54622412 202.89717564 -73.56469727 189.3762207 C-73.58614999 173.6671441 -73.59450202 157.95814919 -73.58224821 142.24905998 C-73.58097408 140.57021798 -73.5797166 138.89137597 -73.57847595 137.21253395 C-73.57785885 136.3865915 -73.57724175 135.56064906 -73.57660595 134.70967805 C-73.5731635 128.91076332 -73.57895823 123.11190066 -73.58839417 117.312994 C-73.59966613 110.22994958 -73.59646728 103.14708224 -73.57527119 96.06405785 C-73.56482448 92.45507294 -73.56052788 88.84638218 -73.5738678 85.23740005 C-73.6596002 59.88625089 -70.78464307 38.68556081 -52.50805664 19.73632812 C-37.82188459 5.24107631 -20.10892645 -0.01407268 0 0 Z " fill="#010101" transform="translate(98.043212890625,-0.29052734375)"/>
<path d="M0 0 C2.81583908 0.06680919 5.62802524 0.08196546 8.44458008 0.08740234 C49.64936892 0.42534464 90.87782375 14.23794115 122.0480957 41.69287109 C122.92208008 42.45728516 123.79606445 43.22169922 124.6965332 44.00927734 C127.17501931 46.20865466 129.61859968 48.43960794 132.0480957 50.69287109 C132.93561523 51.49917969 132.93561523 51.49917969 133.84106445 52.32177734 C139.96908387 58.12956772 145.0209936 64.93775774 150.0480957 71.69287109 C150.47525879 72.26505371 150.90242187 72.83723633 151.3425293 73.42675781 C163.1646336 89.5209092 171.91403398 108.41307756 177.0480957 127.69287109 C177.28786133 128.57507324 177.52762695 129.45727539 177.7746582 130.36621094 C182.59669109 148.80731436 182.7863865 166.77856394 182.0480957 185.69287109 C182.02392578 186.71574219 181.99975586 187.73861328 181.97485352 188.79248047 C181.82248802 192.12290917 181.43432913 195.38062052 181.0480957 198.69287109 C180.99975712 199.4213324 180.95141853 200.1497937 180.90161514 200.90032959 C179.40085497 220.70445797 167.38194532 231.59966997 153.83157873 244.53429031 C150.79559259 247.45127264 147.81024851 250.41923923 144.81912231 253.38208008 C139.16446411 258.96888798 133.46922372 264.51220354 127.75630581 270.03935909 C119.36294413 278.16351578 111.03242697 286.35173628 102.70265388 294.54100037 C101.47033426 295.75236656 100.23799835 296.96371618 99.00564575 298.17504883 C98.40403031 298.76656707 97.80241488 299.35808531 97.18256867 299.96752834 C93.61849469 303.4689321 90.04233206 306.95737637 86.4546392 310.43457222 C84.22812974 312.59399547 82.00730279 314.75920597 79.78730774 316.92532349 C78.759276 317.925441 77.72856614 318.92281433 76.69496536 319.91717529 C75.28149129 321.27738857 73.8781542 322.64811213 72.47531128 324.01928711 C71.68814161 324.78161148 70.90097195 325.54393585 70.08994865 326.32936096 C67.89258285 328.67512669 67.89258285 328.67512669 66.46499825 331.87583923 C64.84361277 335.09941631 63.44397012 335.90407974 60.08666992 337.10644531 C56.29613446 338.19684845 52.4840199 339.0182982 48.6105957 339.75537109 C47.82233398 339.91585938 47.03407227 340.07634766 46.22192383 340.24169922 C32.96517684 342.83881173 19.98361036 343.99442107 6.4855957 343.88818359 C5.24358398 343.88616943 4.00157227 343.88415527 2.72192383 343.88208008 C-1.83605745 343.87176159 -6.39398532 343.84384149 -10.9519043 343.81787109 C-21.1819043 343.77662109 -31.4119043 343.73537109 -41.9519043 343.69287109 C-41.9519043 307.06287109 -41.9519043 270.43287109 -41.9519043 232.69287109 C-13.7019043 232.38037109 -13.7019043 232.38037109 -4.85717773 232.30493164 C-2.50852922 232.27260571 -0.15989486 232.23922698 2.1887207 232.20458984 C3.97511963 232.195224 3.97511963 232.195224 5.79760742 232.18566895 C23.88219842 231.87905597 40.40702922 225.82362841 53.7355957 213.44287109 C64.68845421 201.74439546 70.99248311 185.87655015 70.62475586 169.83398438 C70.15974736 161.75422441 68.91371245 153.11416031 63.6105957 146.78271484 C61.16702567 144.29063569 61.16702567 144.29063569 57.7355957 145.00537109 C53.18861788 144.62003399 52.53519888 143.6243486 49.6105957 140.25537109 C46.93911976 136.65424195 45.58045887 134.32820694 45.7980957 129.81787109 C45.97598633 128.76986328 45.97598633 128.76986328 46.1574707 127.70068359 C46.23096749 125.51335208 46.23096749 125.51335208 44.40356445 123.59912109 C41.89199787 121.56654316 39.57453649 120.3422423 36.6105957 119.06787109 C35.68375977 118.66310547 34.75692383 118.25833984 33.80200195 117.84130859 C32.89321289 117.46232422 31.98442383 117.08333984 31.0480957 116.69287109 C30.26872147 116.36185394 29.48934723 116.03083679 28.68635559 115.68978882 C19.98395857 112.40141913 10.69094891 112.36797209 1.50512695 112.27880859 C0.25551682 112.25944244 -0.99409332 112.24007629 -2.28157043 112.22012329 C-5.56442294 112.17086412 -8.84724482 112.12943519 -12.13024902 112.09197998 C-15.49602809 112.05159227 -18.86164701 112.00066082 -22.22729492 111.95068359 C-28.80206918 111.8551543 -35.37690053 111.7709447 -41.9519043 111.69287109 C-41.9519043 104.10287109 -41.9519043 96.51287109 -41.9519043 88.69287109 C-39.3119043 90.67287109 -36.6719043 92.65287109 -33.9519043 94.69287109 C-28.32027288 97.5086868 -23.15721397 97.22607952 -16.9519043 96.69287109 C-13.49844281 95.34540585 -13.49844281 95.34540585 -10.9519043 93.69287109 C-6.9519043 93.69287109 -6.9519043 93.69287109 -4.4519043 95.19287109 C1.55213785 97.76603201 8.82263667 97.87054178 14.9855957 95.50537109 C21.06331655 91.90835263 24.70098919 87.29489263 27.0480957 80.69287109 C27.59148505 76.61745101 27.71206275 74.68882166 25.4230957 71.25537109 C22.36691118 69.24472338 20.64160245 69.15766796 17.0480957 69.69287109 C14.26639439 71.86479059 13.43841854 73.9748241 12.4855957 77.31787109 C11.79418945 79.73193359 11.79418945 79.73193359 11.0480957 81.69287109 C7.96483221 83.23450284 5.43931471 82.99034645 2.0480957 82.69287109 C-0.61006514 80.40135312 -1.01253233 78.47309446 -1.9519043 75.06787109 C-2.63447953 71.4421322 -2.63447953 71.4421322 -5.9519043 69.69287109 C-10.01750664 69.26190206 -10.01750664 69.26190206 -13.7019043 70.75537109 C-15.17522728 72.83315578 -15.17522728 72.83315578 -15.9519043 76.19287109 C-17.3779398 81.18399535 -17.3779398 81.18399535 -19.9519043 82.69287109 C-23.4519043 83.13037109 -23.4519043 83.13037109 -26.9519043 82.69287109 C-29.61006514 80.40135312 -30.01253233 78.47309446 -30.9519043 75.06787109 C-31.63447953 71.4421322 -31.63447953 71.4421322 -34.9519043 69.69287109 C-37.28389817 69.61382045 -39.62023052 69.6048834 -41.9519043 69.69287109 C-42.05228787 65.37367489 -42.12406921 61.05513238 -42.17163086 56.73510742 C-42.19149878 55.27177067 -42.21860311 53.8085106 -42.25366211 52.34545898 C-42.62839908 36.28136679 -38.8966355 23.02138453 -29.22143555 10.06396484 C-28.47249023 9.28150391 -27.72354492 8.49904297 -26.9519043 7.69287109 C-26.20299927 6.7952002 -26.20299927 6.7952002 -25.43896484 5.87939453 C-18.29046143 -1.27001571 -9.43830955 -0.22781848 0 0 Z " fill="#B189E3" transform="translate(200.951904296875,14.30712890625)"/>
<path d="M0 0 C0.7748877 0.22220215 1.54977539 0.4444043 2.34814453 0.67333984 C16.06814634 4.84240117 26.42953286 11.79836173 36.375 22 C37.04015625 22.65613281 37.7053125 23.31226563 38.390625 23.98828125 C49.34106642 35.50597526 56.59930766 52.60141372 57.9375 68.375 C57.80781061 72.5078745 57.80781061 72.5078745 56.05126953 74.50514221 C55.43880371 74.97854538 54.82633789 75.45194855 54.1953125 75.93969727 C50.26708566 79.17955293 46.64487244 82.6113954 43.05078125 86.21069336 C42.17968971 87.08110181 42.17968971 87.08110181 41.29100037 87.96909428 C39.42111146 89.84063808 37.55427714 91.71519653 35.6875 93.58984375 C34.37635899 94.90285306 33.06499463 96.21563937 31.75341797 97.5282135 C28.32522763 100.96019656 24.90005278 104.39517349 21.4755249 107.83081055 C17.97119796 111.34542187 14.46398917 114.85715489 10.95703125 118.36914062 C4.09355143 125.24330044 -2.76674201 132.12063069 -9.625 139 C-12.32535741 136.29964259 -12.34076987 133.86920086 -12.96484375 130.19140625 C-13.73293645 127.64170206 -14.50311087 126.59016278 -16.625 125 C-21.23183449 124.43343274 -21.23183449 124.43343274 -25.359375 126.17578125 C-27.16369184 128.7764478 -26.75448563 130.46474226 -26.375 133.5625 C-26.26671875 134.53316406 -26.1584375 135.50382813 -26.046875 136.50390625 C-25.75157942 138.99009361 -25.75157942 138.99009361 -24.625 141 C-24.55434383 143.04055005 -24.54078024 145.08334257 -24.5625 147.125 C-24.57152344 148.22070312 -24.58054687 149.31640625 -24.58984375 150.4453125 C-24.60144531 151.28835938 -24.61304688 152.13140625 -24.625 153 C-25.72972656 153.57105469 -26.83445312 154.14210938 -27.97265625 154.73046875 C-38.3398203 160.12243314 -48.56510882 165.7237599 -58.70532227 171.53198242 C-73.52989578 180 -73.52989578 180 -76.625 180 C-77.22634766 178.80117188 -77.22634766 178.80117188 -77.83984375 177.578125 C-88.82506549 156.35497551 -103.61881154 142.83234483 -124.625 132 C-124.02187164 127.99684332 -122.75111356 125.00213773 -120.81640625 121.45703125 C-120.23858398 120.3911377 -119.66076172 119.32524414 -119.06542969 118.22705078 C-118.44571289 117.10024902 -117.82599609 115.97344727 -117.1875 114.8125 C-116.55875977 113.65733887 -115.93001953 112.50217773 -115.28222656 111.31201172 C-111.11507799 103.66129724 -106.90521878 96.03313643 -102.64672852 88.43286133 C-100.90290541 85.32047773 -99.17456292 82.21451883 -97.625 79 C-78.78611514 79.88653576 -61.2995995 86.91719152 -47.625 100 C-46.02347378 101.81746233 -44.43949844 103.65056761 -42.875 105.5 C-39.49815509 109.47498119 -39.49815509 109.47498119 -34.8125 111.375 C-31.60110038 111.21843626 -31.60110038 111.21843626 -29.125 109.5 C-26.9826546 105.92942434 -27.66158892 103.99668352 -28.625 100 C-41.76126121 81.12124561 -63.09648736 71.54199335 -84.625 66 C-80.7368285 61.36824617 -76.72072409 56.92286555 -72.48706055 52.60571289 C-71.90567322 52.0097229 -71.32428589 51.41373291 -70.72528076 50.79968262 C-65.417663 45.36709937 -60.08202199 39.96187916 -54.73828411 34.56484318 C-51.15774469 30.94841813 -47.58667076 27.32363365 -44.03637695 23.67749023 C-40.58688103 20.13519671 -37.1158106 16.6154589 -33.62836647 13.11053276 C-32.30771098 11.77580053 -30.99483365 10.43332407 -29.69013023 9.08299446 C-27.86433827 7.19645372 -26.01211958 5.34025719 -24.15112305 3.48852539 C-23.62251175 2.92912766 -23.09390045 2.36972992 -22.54927063 1.79338074 C-16.06695825 -4.51567599 -7.98909788 -2.29351242 0 0 Z " fill="#FECD70" transform="translate(376.625,275)"/>
<path d="M0 0 C18.83888486 0.88653576 36.3254005 7.91719152 50 21 C51.60152622 22.81746233 53.18550156 24.65056761 54.75 26.5 C58.03878025 30.34266568 58.03878025 30.34266568 62.8125 32 C63.864375 32 64.91625 32 66 32 C69.05326665 32.97657469 69.87208757 33.77581663 71.484375 36.6015625 C71.90203125 37.59929687 72.3196875 38.59703125 72.75 39.625 C73.17796875 40.62789063 73.6059375 41.63078125 74.046875 42.6640625 C74.36140625 43.43492187 74.6759375 44.20578125 75 45 C74.00419922 45.81597656 74.00419922 45.81597656 72.98828125 46.6484375 C70.74461038 48.83624056 70.74461038 48.83624056 70.79296875 51.7265625 C70.92316406 52.68304688 71.05335938 53.63953125 71.1875 54.625 C71.30480469 55.58664062 71.42210937 56.54828125 71.54296875 57.5390625 C71.88148427 59.99328516 71.88148427 59.99328516 73 62 C73.07065617 64.04055005 73.08421976 66.08334257 73.0625 68.125 C73.05347656 69.22070312 73.04445313 70.31640625 73.03515625 71.4453125 C73.02355469 72.28835938 73.01195312 73.13140625 73 74 C71.89527344 74.57105469 70.79054688 75.14210938 69.65234375 75.73046875 C59.2851797 81.12243314 49.05989118 86.7237599 38.91967773 92.53198242 C24.09510422 101 24.09510422 101 21 101 C20.59910156 100.20078125 20.19820313 99.4015625 19.78515625 98.578125 C8.79993451 77.35497551 -5.99381154 63.83234483 -27 53 C-26.39687164 48.99684332 -25.12611356 46.00213773 -23.19140625 42.45703125 C-22.61358398 41.3911377 -22.03576172 40.32524414 -21.44042969 39.22705078 C-20.82071289 38.10024902 -20.20099609 36.97344727 -19.5625 35.8125 C-18.93375977 34.65733887 -18.30501953 33.50217773 -17.65722656 32.31201172 C-13.49007799 24.66129724 -9.28021878 17.03313643 -5.02172852 9.43286133 C-3.27790541 6.32047773 -1.54956292 3.21451883 0 0 Z " fill="#F8D3C9" transform="translate(279,354)"/>
<path d="M0 0 C1.03498627 -0.00569504 1.03498627 -0.00569504 2.09088135 -0.01150513 C4.36866958 -0.01890506 6.64517688 0.00247057 8.92285156 0.02490234 C10.51222585 0.02728835 12.101603 0.02819176 13.690979 0.02767944 C17.02333222 0.03080703 20.35525509 0.04736187 23.6875 0.07421875 C27.94204247 0.10808797 32.19610985 0.11585029 36.45077133 0.11432838 C39.73492909 0.11487468 43.01898465 0.12588504 46.30310822 0.14033127 C47.87066119 0.1466624 49.43822566 0.15062946 51.00579071 0.15211868 C65.4670557 0.18088427 79.29956344 2.26547551 91.06347656 11.48583984 C92.28680909 13.93250491 92.1089448 15.27813358 91.87597656 17.98583984 C91.82054687 18.77990234 91.76511719 19.57396484 91.70800781 20.39208984 C91.06347656 22.48583984 91.06347656 22.48583984 89.20410156 23.77099609 C83.05181023 25.82550214 77.41729236 22.44191777 72.00488281 19.73974609 C64.48126136 16.53246524 57.42142851 16.16011236 49.34472656 16.07177734 C48.36987305 16.0541333 47.39501953 16.03648926 46.390625 16.01831055 C42.78173705 15.95569134 39.17258379 15.90919656 35.56347656 15.86083984 C27.47847656 15.73708984 19.39347656 15.61333984 11.06347656 15.48583984 C11.06347656 44.85583984 11.06347656 74.22583984 11.06347656 104.48583984 C19.04535156 104.40333984 27.02722656 104.32083984 35.25097656 104.23583984 C37.74297607 104.22004883 40.23497559 104.20425781 42.80249023 104.18798828 C58.93314847 103.99448337 73.78769251 102.91133895 86.28222656 91.45068359 C95.90120585 81.27538274 99.48345785 70.071389 99.33300781 56.21630859 C99.03161847 52.04490536 98.11641094 48.56078563 96.73925781 44.63818359 C95.75620247 41.50718075 95.7325179 38.72923475 96.06347656 35.48583984 C98.06347656 32.48583984 98.06347656 32.48583984 101.87597656 31.54833984 C104.86110657 31.31622304 106.00707087 31.46020089 108.81347656 32.73583984 C116.23833747 41.81066984 116.98283009 54.83093739 116.33300781 66.09375 C114.50176686 82.34601349 105.53836838 97.20939208 93.06347656 107.48583984 C79.19282255 117.00137145 65.60550762 120.11674577 48.96582031 120.01708984 C47.35730252 120.01979153 45.74878632 120.02367954 44.14027405 120.02868652 C40.79786359 120.03453462 37.45588509 120.02616193 34.11352539 120.00732422 C29.83283984 119.98436928 25.55314857 119.99779022 21.27249813 120.02161407 C17.9636126 120.03605807 14.65496384 120.03147549 11.34607124 120.02110291 C9.76682986 120.01844033 8.1875668 120.02168887 6.60835075 120.03102112 C4.40913441 120.04118278 2.2115461 120.02570187 0.01245117 120.00341797 C-1.23629288 120.0002356 -2.48503693 119.99705322 -3.7716217 119.99377441 C-7.51317929 119.39329244 -8.70427319 118.49837627 -10.93652344 115.48583984 C-11.43652344 112.48583984 -11.43652344 112.48583984 -10.93652344 109.48583984 C-9.12402344 107.11083984 -9.12402344 107.11083984 -6.93652344 105.48583984 C-5.94652344 105.48583984 -4.95652344 105.48583984 -3.93652344 105.48583984 C-3.93652344 75.45583984 -3.93652344 45.42583984 -3.93652344 14.48583984 C-5.58652344 14.15583984 -7.23652344 13.82583984 -8.93652344 13.48583984 C-11.26401688 9.99459967 -11.4395166 8.59361733 -10.93652344 4.48583984 C-7.76067567 0.16914232 -5.20239273 -0.01189911 0 0 Z " fill="#000001" transform="translate(155.9365234375,126.51416015625)"/>
<path d="M0 0 C1.16015625 0.33112793 1.16015625 0.33112793 2.34375 0.66894531 C14.94236021 4.48467193 25.14119358 10.61410736 34.375 20 C30.38965059 24.77636699 26.23018055 29.2858377 21.81884766 33.66967773 C21.19374298 34.29492844 20.56863831 34.92017914 19.92459106 35.56437683 C17.88177921 37.60649851 15.83546093 39.64506673 13.7890625 41.68359375 C12.36252317 43.10826572 10.93620616 44.53316032 9.51010132 45.95826721 C5.77396155 49.69060687 2.03482738 53.41993237 -1.70495605 57.14862061 C-5.52778697 60.96118329 -9.34775387 64.77661322 -13.16796875 68.59179688 C-20.65085867 76.06399371 -28.13691776 83.53300678 -35.625 91 C-36.88618382 90.06092525 -38.14641264 89.12056785 -39.40625 88.1796875 C-40.10814453 87.65616699 -40.81003906 87.13264648 -41.53320312 86.59326172 C-43.43515332 85.14460077 -45.28235271 83.64774519 -47.125 82.125 C-58.33138979 73.80212571 -71.26506448 69.43919132 -84.625 66 C-80.7368285 61.36824617 -76.72072409 56.92286555 -72.48706055 52.60571289 C-71.90567322 52.0097229 -71.32428589 51.41373291 -70.72528076 50.79968262 C-65.417663 45.36709937 -60.08202199 39.96187916 -54.73828411 34.56484318 C-51.15774469 30.94841813 -47.58667076 27.32363365 -44.03637695 23.67749023 C-40.58688103 20.13519671 -37.1158106 16.6154589 -33.62836647 13.11053276 C-32.30771098 11.77580053 -30.99483365 10.43332407 -29.69013023 9.08299446 C-27.86433827 7.19645372 -26.01211958 5.34025719 -24.15112305 3.48852539 C-23.62251175 2.92912766 -23.09390045 2.36972992 -22.54927063 1.79338074 C-16.06631433 -4.5163027 -7.98975719 -2.29243478 0 0 Z " fill="#FDB256" transform="translate(376.625,275)"/>
<path d="M0 0 C1.5676453 1.217261 3.11016563 2.46761435 4.625 3.75 C5.39328125 4.37261719 6.1615625 4.99523437 6.953125 5.63671875 C16.45661107 14.12197417 22.73583067 27.28092406 23.92578125 39.953125 C23.98690378 55.84498319 19.3573789 70.24058213 8.13208008 81.71533203 C5.34597173 84.45141986 2.50942251 87.11761441 -0.375 89.75 C-2.51187095 86.54469357 -3.13197955 84.1553713 -4.0625 80.4375 C-10.47032053 57.56252302 -26.10776694 38.82205299 -46.41796875 26.82519531 C-55.1406577 22.03293956 -64.72342814 19.03748273 -74.375 16.75 C-69.35267186 5.10247305 -56.77469622 -1.32750035 -45.890625 -6.41015625 C-31.01398908 -11.92477129 -12.94069463 -8.54085846 0 0 Z " fill="#E75A6E" transform="translate(448.375,243.25)"/>
<path d="M0 0 C13.00376779 1.63486676 24.49711058 12.60300572 32.8203125 22.140625 C37.48200104 28.25595836 42.30671023 35.43541202 44 43 C36.53493234 48.43202346 28.77954094 53.22104657 20.8125 57.875 C19.01308415 58.93164619 17.21440763 59.98954313 15.41577148 61.04751587 C14.23816554 61.7400482 13.06027239 62.43209241 11.88208008 63.12362671 C6.15675251 66.486529 0.48290593 69.93127036 -5.1796875 73.3984375 C-10.31554064 76.3149192 -14.03876508 77.51389956 -20 77 C-25.86036733 75.18126531 -28.59430382 72.9082092 -32 68 C-33.81389403 62.32410435 -33.76598897 56.84470729 -31.48828125 51.359375 C-30.78362434 50.14406801 -30.05702339 48.9413007 -29.3125 47.75 C-28.91530762 47.0801709 -28.51811523 46.4103418 -28.10888672 45.72021484 C-26.76170581 43.46569658 -25.38349309 41.23240184 -24 39 C-22.96470557 37.30998047 -21.92955422 35.61987329 -20.89453125 33.9296875 C-18.71231397 30.38103818 -16.51568485 26.84182148 -14.30859375 23.30859375 C-11.06902545 18.1212744 -7.87186232 12.90884828 -4.6875 7.6875 C-4.21328613 6.91035645 -3.73907227 6.13321289 -3.25048828 5.33251953 C-2.16644824 3.5553447 -1.08313321 1.77772766 0 0 Z " fill="#4B5597" transform="translate(243,420)"/>
<path d="M0 0 C18.21835644 0.85733442 37.23510998 7.55778928 50 21 C50 24 50 24 48.17773438 26.18302917 C47.32501953 27.02908218 46.47230469 27.87513519 45.59375 28.74682617 C44.89149292 29.44974037 44.89149292 29.44974037 44.17504883 30.16685486 C42.62370338 31.716108 41.06199742 33.25446189 39.5 34.79296875 C38.4231763 35.86419807 37.34701245 36.93609108 36.27148438 38.00862122 C33.43723182 40.83141258 30.59408603 43.64508009 27.74902344 46.45697021 C24.84811303 49.32720726 21.95566359 52.20594251 19.0625 55.08398438 C13.3832678 60.73102995 7.69461678 66.36846918 2 72 C0.74295977 71.06190745 -0.51342026 70.12293019 -1.76953125 69.18359375 C-2.46925049 68.66079834 -3.16896973 68.13800293 -3.88989258 67.59936523 C-5.84719742 66.11581739 -7.77028363 64.59726362 -9.6875 63.0625 C-15.04001289 59.01861751 -21.05385389 56.06371553 -27 53 C-26.39687164 48.99684332 -25.12611356 46.00213773 -23.19140625 42.45703125 C-22.61358398 41.3911377 -22.03576172 40.32524414 -21.44042969 39.22705078 C-20.82071289 38.10024902 -20.20099609 36.97344727 -19.5625 35.8125 C-18.93375977 34.65733887 -18.30501953 33.50217773 -17.65722656 32.31201172 C-13.49007799 24.66129724 -9.28021878 17.03313643 -5.02172852 9.43286133 C-3.27790541 6.32047773 -1.54956292 3.21451883 0 0 Z " fill="#FDB19B" transform="translate(279,354)"/>
<path d="M0 0 C7.46956776 12.6160642 10.05565238 25.5208572 6.9375 39.9375 C2.64865919 54.77299024 -4.84314357 63.81801452 -16 74 C-18.13687095 70.79469357 -18.75697955 68.4053713 -19.6875 64.6875 C-23.71754476 50.30083284 -31.20389196 37.38181044 -42 27 C-39.88488792 22.29874998 -36.55789223 19.21548618 -32.9375 15.625 C-32.26009766 14.95178711 -31.58269531 14.27857422 -30.88476562 13.58496094 C-24.34222675 7.18926988 -9.75654798 -6.63445263 0 0 Z " fill="#FC8C9C" transform="translate(464,259)"/>
<path d="M0 0 C0.77923828 0.01353516 1.55847656 0.02707031 2.36132812 0.04101562 C4.26202404 0.07599776 6.16235834 0.12979041 8.0625 0.1875 C8.11857422 1.41726562 8.11857422 1.41726562 8.17578125 2.671875 C8.27439453 4.28835937 8.27439453 4.28835937 8.375 5.9375 C8.43300781 7.00484375 8.49101563 8.0721875 8.55078125 9.171875 C9.10165938 12.41827132 9.71944653 13.89906316 12.0625 16.1875 C15.52983097 16.62091637 17.92026705 16.9109142 20.9375 15 C22.32479035 12.7649211 22.71237213 10.77844622 23.0625 8.1875 C23.7225 8.1875 24.3825 8.1875 25.0625 8.1875 C26.31640625 9.83203125 26.31640625 9.83203125 27.625 12 C28.05941406 12.70769531 28.49382812 13.41539063 28.94140625 14.14453125 C31.50693761 18.81969815 31.87854876 23.24556626 30.44921875 28.3984375 C27.49286542 36.03025711 22.15651297 40.7456736 15.0625 44.625 C6.87459675 47.92290548 -4.8485768 47.54231002 -12.98046875 44.23046875 C-20.06933897 40.45256785 -25.34512717 35.96461848 -27.9375 28.1875 C-28.5089658 22.30421277 -28.75024773 16.83715744 -25.33203125 11.8125 C-18.10574898 3.3919582 -11.02626398 -0.36848697 0 0 Z " fill="#FD8D9E" transform="translate(110.9375,72.8125)"/>
<path d="M0 0 C7.25475997 0.544107 12.61376162 4.18134835 17.375 9.5 C21.34444448 14.50495173 22.64581436 18.54185643 22 25 C19.33065492 33.39761532 14.64024602 38.59216576 7 43 C-1.59228065 47.00516668 -10.66443792 47.33942513 -19.6875 44.5 C-26.7287621 41.61624143 -32.0465685 37.13732938 -36.0625 30.6875 C-37.32044658 25.73957677 -37.24779715 21.0752527 -37 16 C-34.03 15.34 -31.06 14.68 -28 14 C-27.731875 12.576875 -27.46375 11.15375 -27.1875 9.6875 C-26.52883642 6.19151637 -25.87141523 4.2023476 -23 2 C-19.45258485 1.47166157 -17.72260736 1.49818934 -14.75 3.5625 C-12.59241667 6.56770535 -11.92284961 9.44043721 -11 13 C-10.34 13.66 -9.68 14.32 -9 15 C-3.96494948 14.76135558 -3.96494948 14.76135558 0 12 C0.24339551 9.10116917 0.24339551 9.10116917 0.125 5.875 C0.10695313 4.77929688 0.08890625 3.68359375 0.0703125 2.5546875 C0.04710937 1.71164063 0.02390625 0.86859375 0 0 Z " fill="#FC8D9D" transform="translate(280,74)"/>
<path d="M0 0 C8.22614161 3.7331789 13.36524723 14.12428045 17.41796875 21.84375 C18 24 18 24 17.45092773 25.87255859 C15.36837575 28.92612716 12.51372982 30.40635354 9.3671875 32.1953125 C8.36974014 32.77955238 8.36974014 32.77955238 7.35214233 33.37559509 C5.19842945 34.63481341 3.03682363 35.87976784 0.875 37.125 C-1.32724786 38.40852785 -3.52730068 39.69575825 -5.72717285 40.98335266 C-7.16977477 41.82751648 -8.61304909 42.67053232 -10.05700684 43.51237488 C-15.97538767 46.96696278 -21.8070988 50.54421218 -27.58251953 54.23291016 C-33.19651845 57.80907559 -36.21224056 59.26106767 -43 59 C-41.2332258 43.35142848 -32.74847721 32.67374852 -22 22 C-20.61242157 20.60387953 -19.22490326 19.2076988 -17.83839417 17.81051636 C-11.91874297 11.84691196 -5.96750598 5.91573237 0 0 Z " fill="#666DB0" transform="translate(269,437)"/>
<path d="M0 0 C3.2974053 2.95629441 3.89654455 6.82263294 5 11 C6.00836062 12.23267348 6.00836062 12.23267348 8.06640625 12.09765625 C8.89011719 12.08605469 9.71382812 12.07445313 10.5625 12.0625 C11.38878906 12.05347656 12.21507812 12.04445313 13.06640625 12.03515625 C13.70449219 12.02355469 14.34257812 12.01195313 15 12 C15.09796875 11.39671875 15.1959375 10.7934375 15.296875 10.171875 C15.99445358 6.44343778 16.59053233 3.59957766 18.75 0.4375 C21.81342972 -1.51969121 23.42715217 -1.65623736 27 -1 C31.52341995 2.39256496 32.75089512 5.58721217 34 11 C35.00836062 12.23267348 35.00836062 12.23267348 37.06640625 12.09765625 C37.89011719 12.08605469 38.71382812 12.07445313 39.5625 12.0625 C40.38878906 12.05347656 41.21507812 12.04445313 42.06640625 12.03515625 C42.70449219 12.02355469 43.34257812 12.01195313 44 12 C44.09796875 11.39671875 44.1959375 10.7934375 44.296875 10.171875 C44.99445358 6.44343778 45.59053233 3.59957766 47.75 0.4375 C50.81342972 -1.51969121 52.42715217 -1.65623736 56 -1 C59.46573427 1.48628763 60.79948249 2.97736069 61.625 7.1875 C60.45801206 14.30612642 57.69842101 20.08298011 51.9375 24.5625 C45.92423152 28.76583421 39.13599529 28.73885141 32 28 C29.80078125 27.03515625 29.80078125 27.03515625 28 25.875 C27.01 25.25625 26.02 24.6375 25 24 C22.80092298 24.51603346 22.80092298 24.51603346 21 26 C15.1574109 28.78267424 9.34756215 28.74451454 3 28 C-3.5055561 25.5824648 -7.94153279 20.62682318 -11.3125 14.6875 C-12.32336756 10.73592683 -12.72201865 7.03879184 -12 3 C-8.43524977 -1.53695483 -5.36705517 -1.59023857 0 0 Z " fill="#030204" transform="translate(168,84)"/>
<path d="M0 0 C6.38607736 2.8017586 10.68153341 6.63972264 13.26953125 13.1953125 C13.97987166 17.02700274 14.10246444 20.37873804 13.26953125 24.1953125 C10.83979413 27.1804181 9.44013609 27.9669018 5.70703125 28.6953125 C2.35748624 28.00822634 1.30550227 26.93334249 -0.73046875 24.1953125 C-1.4497417 21.87765521 -2.12145805 19.54435376 -2.73046875 17.1953125 C-4.61547146 14.87968163 -4.61547146 14.87968163 -7.73046875 14.9453125 C-10.84546604 14.87968163 -10.84546604 14.87968163 -12.73046875 17.1953125 C-13.54228544 19.47349964 -14.19074582 21.77548779 -14.8515625 24.1015625 C-15.73046875 26.1953125 -15.73046875 26.1953125 -18.73046875 28.1953125 C-22.3187035 28.06716126 -24.78585906 27.92662323 -27.66796875 25.6953125 C-29.32381148 21.79921196 -29.45568267 18.35503011 -28.73046875 14.1953125 C-23.6969495 2.14928353 -12.61212241 -3.71687728 0 0 Z " fill="#040203" transform="translate(267.73046875,61.8046875)"/>
<path d="M0 0 C3.3271102 0.98581043 4.3365204 1.35651811 6.375 4 C6.9978433 7.11572188 6.83855069 10.2664207 6.8125 13.4375 C6.83248047 14.29666016 6.85246094 15.15582031 6.87304688 16.04101562 C6.86819023 22.30122507 6.86819023 22.30122507 4.56640625 25.5625 C1.31169531 27.69749755 -0.82673899 27.61043481 -4.625 27 C-7.65561212 24.21877636 -8.8677397 21.99499404 -9.19140625 17.96875 C-9.21117775 16.47929732 -9.20936546 14.98942341 -9.1875 13.5 C-9.21134766 12.75363281 -9.23519531 12.00726563 -9.25976562 11.23828125 C-9.24865214 7.05220056 -8.93644028 5.40893004 -6.31640625 1.96875 C-3.625 0 -3.625 0 0 0 Z " fill="#050305" transform="translate(127.625,63)"/>
</svg>
