<svg version="1.1" id="Layer_1" xmlns="http://www.w3.org/2000/svg" x="0" y="0" viewBox="0 0 256 256" style="enable-background:new 0 0 256 256" xml:space="preserve"><style>.st0{fill:#382b73}.st2{fill:#a72973}.st7{fill:#009add}.st8{fill:#1caee4}.st9{fill:#27c1e6}.st10{fill:#fede3a}.st12{fill:#f7cb15}</style><switch><g><circle class="st0" cx="128" cy="128" r="119.4"/><circle cx="128" cy="128" r="103.299" style="fill:#473080"/><path class="st0" d="M186.429 150.841v-49.159a5.649 5.649 0 0 0-5.649-5.649h-56.289a8.472 8.472 0 0 1-7.258-4.102l-5.239-8.698a5.648 5.648 0 0 0-4.839-2.734H75.219a5.649 5.649 0 0 0-5.649 5.649v97.703a5.618 5.618 0 0 0 1.29 3.593 5.639 5.639 0 0 0 4.359 2.056H180.78a5.636 5.636 0 0 0 4.967-2.957c.435-.8.682-1.717.682-2.692v-33.01z"/><g><path class="st2" d="m117.233 84.933-5.239-8.698a5.648 5.648 0 0 0-4.839-2.734H75.219a5.649 5.649 0 0 0-5.649 5.649v81.554a5.649 5.649 0 0 0 5.649 5.649H180.78a5.649 5.649 0 0 0 5.649-5.649v-66.02a5.649 5.649 0 0 0-5.649-5.649h-56.289a8.476 8.476 0 0 1-7.258-4.102z"/><path d="M180.781 89.034H75.219a5.649 5.649 0 0 0-5.649 5.649v66.02a5.649 5.649 0 0 0 5.649 5.649H180.78a5.649 5.649 0 0 0 5.649-5.649v-66.02a5.649 5.649 0 0 0-5.648-5.649z" style="fill:#d1d3d4"/><path d="M180.781 97.22H75.219a5.649 5.649 0 0 0-5.649 5.649v66.02a5.649 5.649 0 0 0 5.649 5.649H180.78a5.649 5.649 0 0 0 5.649-5.649v-66.02a5.649 5.649 0 0 0-5.648-5.649z" style="fill:#fff"/><path d="M180.781 105.183H75.219a5.649 5.649 0 0 0-5.649 5.649v66.02a5.649 5.649 0 0 0 5.649 5.649H180.78a5.649 5.649 0 0 0 5.649-5.649v-66.02a5.649 5.649 0 0 0-5.648-5.649z" style="fill:#ef5a9d"/><path d="M69.571 143.841v33.01a5.649 5.649 0 0 0 5.649 5.649h105.561a5.649 5.649 0 0 0 5.649-5.649v-33.01H69.571z" style="fill:#e43d91"/><path class="st2" d="M159.859 125.59a2.587 2.587 0 0 0-1.455-.445h-18.853v-1.193a.651.651 0 0 0-.651-.651h-.672c-.223-3.441-4.628-6.101-10.228-6.101s-10.005 2.66-10.228 6.101h-.672a.651.651 0 0 0-.651.651v1.193H97.596a2.602 2.602 0 0 0-2.603 2.603v12.122c0 .607.203 1.2.596 1.663.451.531.926 1.05 1.419 1.557v27.364a2.602 2.602 0 0 0 2.603 2.603h56.777a2.602 2.602 0 0 0 2.603-2.603V143.09c.493-.507.968-1.026 1.419-1.557a2.564 2.564 0 0 0 .596-1.663v-12.122c0-.898-.455-1.69-1.147-2.158zm-38.8-2.288h-.676c.296-1.707 3.338-3.498 7.617-3.498s7.32 1.791 7.617 3.498h-.676a.651.651 0 0 0-.651.651v1.193h-3.118v-.014h-6.345v.014h-3.118v-1.193a.65.65 0 0 0-.65-.651z"/><g><path class="st7" d="M156.389 169.424H99.611a2.602 2.602 0 0 1-2.603-2.603V127.37a2.602 2.602 0 0 1 2.603-2.603h56.777a2.602 2.602 0 0 1 2.603 2.603v39.451a2.602 2.602 0 0 1-2.602 2.603z"/><path class="st8" d="M156.389 166.17H99.611a2.602 2.602 0 0 1-2.603-2.603v-39.451a2.602 2.602 0 0 1 2.603-2.603h56.777a2.602 2.602 0 0 1 2.603 2.603v39.451a2.602 2.602 0 0 1-2.602 2.603z"/><path class="st9" d="M127.39 152.708h1.22v13.462h-1.22z"/><path class="st7" d="M128 151.42c13.568 0 25.503-5.38 32.411-13.519a2.562 2.562 0 0 0 .596-1.663v-12.122a2.602 2.602 0 0 0-2.603-2.603H97.597a2.602 2.602 0 0 0-2.603 2.603v12.122c0 .607.203 1.2.596 1.663 6.907 8.139 18.842 13.519 32.41 13.519z"/><path class="st8" d="M158.403 121.513H97.597a2.602 2.602 0 0 0-2.603 2.603v4.555a2.602 2.602 0 0 1 2.603-2.603h60.807a2.602 2.602 0 0 1 2.603 2.603v-4.555a2.604 2.604 0 0 0-2.604-2.603z"/><path class="st10" d="M121.059 119.669H117.1a.651.651 0 0 0-.651.651v1.193h5.26v-1.193a.65.65 0 0 0-.65-.651zM138.9 119.669h-3.959a.651.651 0 0 0-.651.651v1.193h5.26v-1.193a.65.65 0 0 0-.65-.651z"/><path class="st8" d="M135.622 119.669h2.618c-.221-3.442-4.639-6.101-10.24-6.101s-10.018 2.658-10.24 6.101h2.618c.297-1.707 3.343-3.498 7.622-3.498s7.325 1.791 7.622 3.498z"/><path class="st7" d="M135.622 119.669h1.313c-.249-2.674-4.154-4.799-8.935-4.799-4.781 0-8.686 2.125-8.935 4.799h1.313c.297-1.707 3.343-3.498 7.622-3.498s7.325 1.791 7.622 3.498z"/><path class="st8" d="M124.827 121.499h6.345v24.132h-6.345z"/><path class="st9" d="M124.827 121.499h6.345v4.569h-6.345z"/><g><path d="M132.795 152.708h-9.59a.86.86 0 0 1-.86-.86v-5.356a.86.86 0 0 1 .86-.86h9.59a.86.86 0 0 1 .86.86v5.356a.86.86 0 0 1-.86.86z" style="fill:#fff335"/><path class="st12" d="M132.795 151.878h-9.59a.86.86 0 0 1-.86-.86v.829c0 .475.385.86.86.86h9.59a.86.86 0 0 0 .86-.86v-.829a.86.86 0 0 1-.86.86zM130.939 149.991h-5.877a.758.758 0 0 1-.758-.758v-.885c0-.419.339-.758.758-.758h5.877c.419 0 .758.339.758.758v.885c0 .418-.34.758-.758.758z"/></g></g></g></g></switch></svg>